<?xml version="1.0" encoding="utf-8"?>
<!-- Generator: Adobe Illustrator 20.1.0, SVG Export Plug-In . SVG Version: 6.00 Build 0)  -->
<svg version="1.1" id="Layer_1" xmlns="http://www.w3.org/2000/svg" xmlns:xlink="http://www.w3.org/1999/xlink" x="0px" y="0px"
	 viewBox="0 0 97.9 96.7" style="enable-background:new 0 0 97.9 96.7;" xml:space="preserve">
<g>
	<path d="M32,45.5c-1.4,0-2.5,1.1-2.5,2.5s1.1,2.5,2.5,2.5c1.4,0,2.5-1.1,2.5-2.5S33.4,45.5,32,45.5z M32,49c-0.5,0-0.9-0.4-0.9-0.9
		s0.4-0.9,0.9-0.9s0.9,0.4,0.9,0.9S32.5,49,32,49z"/>
	<path d="M88.2,40.8c0.4,0,0.8-0.4,0.8-0.8V25.9c0-0.4-0.4-0.8-0.8-0.8h-6.6c-0.4,0-0.8,0.4-0.8,0.8V40c0,0.4,0.4,0.8,0.8,0.8h2.5
		v1.8h-7.2c-1.2-0.9-2.7-1.4-4.2-1.4c-3.5,0-6.5,2.7-6.9,6.1h-0.7v-2c0-0.4-0.4-0.8-0.8-0.8h-5.8l-1.2-2.2c-0.1-0.3-0.4-0.4-0.7-0.4
		h-7.9v-1.3H52c0.4,0,0.8-0.4,0.8-0.8V22.7c0-0.4-0.4-0.8-0.8-0.8h-8c-0.4,0-0.8,0.4-0.8,0.8v17.1c0,0.4,0.4,0.8,0.8,0.8h3.2v1.3
		h-7.7c-0.4,0-0.8,0.4-0.8,0.8v4.6h-0.9c-0.4-3-3-5.3-6.1-5.3c-2.1,0-3.9,1-5,2.7c-1.1-1.6-3-2.7-5-2.7H18v-1.2h1.3
		c0.4,0,0.8-0.4,0.8-0.8V25.9c0-0.4-0.4-0.8-0.8-0.8h-6.6c-0.4,0-0.8,0.4-0.8,0.8V40c0,0.4,0.4,0.8,0.8,0.8H14V42h-4
		c-0.4,0-0.8,0.4-0.8,0.8v10.6c0,0.4,0.4,0.8,0.8,0.8h4v1.2h-1.3c-0.4,0-0.8,0.4-0.8,0.8v14.1c0,0.4,0.4,0.8,0.8,0.8h6.6
		c0.4,0,0.8-0.4,0.8-0.8V56.2c0-0.4-0.4-0.8-0.8-0.8H18v-1.2h3.7c2.1,0,3.9-1,5-2.7c1.1,1.6,3,2.7,5,2.7c3.1,0,5.7-2.3,6.1-5.3h0.9
		v4.5c0,0.4,0.4,0.8,0.8,0.8h7.7v1.3H44c-0.4,0-0.8,0.4-0.8,0.8v17.1c0,0.4,0.4,0.8,0.8,0.8h8c0.4,0,0.8-0.4,0.8-0.8V56.3
		c0-0.4-0.4-0.8-0.8-0.8h-3.2v-1.3h7.9c0.3,0,0.6-0.2,0.7-0.4l1.2-2.2h5.8c0.4,0,0.8-0.4,0.8-0.8v-1.9h0.7c0.4,3.4,3.3,6.1,6.8,6.1
		c1.5,0,3-0.5,4.2-1.4h7.2v1.8h-2.5c-0.4,0-0.8,0.4-0.8,0.8v14.1c0,0.4,0.4,0.8,0.8,0.8h6.6c0.4,0,0.8-0.4,0.8-0.8V56.2
		c0-0.4-0.4-0.8-0.8-0.8h-2.5v-1.8h2.5c0.4,0,0.8-0.4,0.8-0.8v-9.4c0-0.4-0.4-0.8-0.8-0.8h-2.5v-1.8L88.2,40.8L88.2,40.8z M48.8,39
		v-2.6h2.4V39H48.8z M47.2,30.4h-2.4v-2.7h2.4V30.4z M48.8,27.7h2.4v2.7h-2.4V27.7z M47.2,32v2.7h-2.4V32H47.2z M48.8,32h2.4v2.7
		h-2.4V32z M51.2,26.1h-2.4v-2.6h2.4V26.1z M47.2,23.5v2.6h-2.4v-2.6H47.2z M44.8,39v-2.6h2.4V39H44.8z M13.9,52.6v-9.1h4.4v9.1
		H13.9z M19.9,43.6h1.3v9.1h-1.3V43.6z M18.4,33.7v2h-5v-2H18.4z M13.3,32.1v-2h5v2H13.3z M18.4,26.6v1.9h-5v-1.9H18.4z M13.3,37.3
		h5v1.9h-5C13.3,39.2,13.3,37.3,13.3,37.3z M15.4,40.8h0.9V42h-0.9V40.8z M10.6,43.6h1.7v9.1h-1.7V43.6z M13.3,62.5v-2h5v2H13.3z
		 M18.4,64.1v2h-5v-2H18.4z M13.3,69.5v-1.9h5v1.9H13.3z M18.4,58.9h-5V57h5V58.9z M16.3,55.4h-0.9v-1.2h0.9V55.4z M22.8,52.5v-8.7
		c1.4,0.4,2.5,1.4,3.1,2.8v3.2C25.4,51.1,24.2,52.1,22.8,52.5z M31.7,52.6c-1.9,0-3.6-1.2-4.3-3v-3c0.6-1.8,2.3-3,4.3-3
		c2.5,0,4.5,2,4.5,4.5S34.2,52.6,31.7,52.6z M47.2,57.1v2.6h-2.4v-2.6H47.2z M48.8,65.7h2.4v2.7h-2.4V65.7z M47.2,68.4h-2.4v-2.7
		h2.4V68.4z M48.8,64.1v-2.7h2.4v2.7H48.8z M47.2,64.1h-2.4v-2.7h2.4V64.1z M44.8,70h2.4v2.6h-2.4V70z M48.8,72.7V70h2.4v2.6
		L48.8,72.7L48.8,72.7z M51.2,57.1v2.6h-2.4v-2.6H51.2z M40.3,43.5h2.2v9.1h-2.2V43.5z M56.2,52.6H44.1v-9.1h12.1l1.1,1.9v5.3
		L56.2,52.6z M63.6,50h-4.7v-3.9h4.7V50z M82.4,62.5v-2h5v2H82.4z M87.4,64.1v2h-5v-2H87.4z M82.4,69.5v-1.9h5v1.9H82.4z M87.4,58.9
		h-5V57h5V58.9z M67.4,48.1c0-1.8,0.9-3.3,2.2-4.3v8.6C68.2,51.4,67.4,49.8,67.4,48.1z M72.7,53.4c-0.5,0-1-0.1-1.5-0.2V43
		c0.5-0.1,1-0.2,1.5-0.2c1.2,0,2.4,0.4,3.4,1.2c0,0,0.1,0.1,0.2,0.1V52c-0.1,0-0.1,0.1-0.2,0.1C75.1,52.9,73.9,53.4,72.7,53.4z
		 M87.4,52h-9.5v-7.8h9.5V52z M87.4,33.7v2h-5v-2H87.4z M82.4,32.1v-2h5v2H82.4z M87.4,26.6v1.9h-5v-1.9H87.4z M82.4,37.3h5v1.9h-5
		V37.3z"/>
</g>
</svg>
