<?xml version="1.0" encoding="utf-8"?>
<!-- Generator: Adobe Illustrator 14.0.0, SVG Export Plug-In . SVG Version: 6.00 Build 43363)  -->
<!DOCTYPE svg PUBLIC "-//W3C//DTD SVG 1.1//EN" "http://www.w3.org/Graphics/SVG/1.1/DTD/svg11.dtd">
<svg version="1.1" id="Layer_1" xmlns="http://www.w3.org/2000/svg" xmlns:xlink="http://www.w3.org/1999/xlink" x="0px" y="0px"
	 width="1000px" height="1000px" viewBox="0 0 1000 1000" enable-background="new 0 0 1000 1000" xml:space="preserve">
<g>
	<defs>
		<rect id="SVGID_1_" x="300" y="385" width="400" height="229"/>
	</defs>
	<clipPath id="SVGID_2_">
		<use xlink:href="#SVGID_1_"  overflow="visible"/>
	</clipPath>
	<g clip-path="url(#SVGID_2_)">
		<g opacity="0.5">
			<path fill-rule="evenodd" clip-rule="evenodd" fill="#FFFFFF" d="M301,385c132.999,0,266.002,0,399,0c0,76.333,0,152.666,0,229
				c-133.333,0-266.667,0-400,0c0-75.333,0-150.667,0-226C299.914,386.581,299.835,385.168,301,385z M508,391
				c-25.165,14.168-36.321,42.345-52,66c-5.119-4.215-11.766-6.901-19-9c-18.687-9.313-38.175-17.825-58-26
				c-9.556-1.777-14.454-8.213-25-9c-4.328,5.672-1.162,18.838-7,23c0.846-9.154,4.524-15.476,4-26c-12.555-3.445-21.47-10.53-34-14
				c-2.782,16.218-6.845,31.155-9,48c10.732,4.934,20.152,11.181,33,14c1.944-6.056,2.797-13.203,6-18
				c-0.143,7.524-3.574,11.759-3,20c7.972,4.362,17.439,7.228,25,12c4.925,1.742,8.323,5.011,14,6c4.752,1.914,8.97,4.363,14,6
				c12.652,8.015,27.48,13.853,42,20c0.294,2.039,2.706,1.961,3,4c-12.776,17.606,10.76,30.403,21,38c0.113-1.22,0.299-2.367,2-2
				c1.393,1.582,12.127,5.358,8,3c-4.235-2.099-8.304-4.362-13-6c1.868-3.475-1.153-4.648-3-7c0.429-1.904,2.154-2.513,2-5
				c2.358,1.468,1.86,2.11,5,1c-0.119-3.548-3.958-3.376-6-5c-3.34,1.994-2.051,8.615-5,11c1.15-2.933-4.796-3.714-2-5
				c5.048-1.309,3.091-12.263,8-15c2.77-1.544,6.066-5.81,3-11c5.061-1.938,2.177-8.433,5-14c5.102,1.763,7.055-3.65,12,0
				c1.447-1.553,1.333-4.667,3-6c5.23,3.436,12.227,5.106,18,8c0.479,3.146-1.424,3.909-2,6c8.946-0.387,6.41-12.256,11-17
				c2.863-0.197,5.458-0.125,5,3c0.031,3.032-5.031,0.968-5,4c2.062,0.605,6.947-1.614,6,2c-6.261-1.493-4.82,6.256-8,5
				c2.716-0.715-0.716,4.716,2,4c1.727-0.606-0.077-4.743,2-5c0.573,2.427,6.469-0.469,6,3c-8.094,17.24-13.839,36.827-22,54
				c-1.453,0.547-5.168-1.169-5,1c7.452,0.688,1.144,1.148-1,2c16.129,4.759,25.82-9.791,38-11c22.949,9.718,44.181,21.152,68,30
				c8.693,4.974,17.574,9.759,28,13c4.189,3.221,6.436,3.509,11,5c11.669,4.997,23.372,9.962,35,15c0.013-1.987,2.729-1.271,2-4
				c7.331-13.002,15.326-25.34,21-40c-48.974-22.359-98.374-44.293-147-67c0-0.667,0-1.333,0-2c0.578-5.762,4.438-6.879,6-11
				c3.564-9.402,2.785-30.986,4-46c1.914-23.646-0.561-38.376-21-43C526.363,391.75,517.299,388.634,508,391z"/>
			<path fill-rule="evenodd" clip-rule="evenodd" fill="#E3E0DB" d="M527,544c-12.18,1.209-21.871,15.759-38,11
				c2.144-0.852,8.452-1.313,1-2c-0.168-2.169,3.547-0.453,5-1c8.161-17.173,13.906-36.76,22-54c0.469-3.469-5.427-0.573-6-3
				c-2.077,0.257-0.273,4.394-2,5c-2.716,0.716,0.716-4.715-2-4c3.18,1.256,1.739-6.493,8-5c0.947-3.614-3.938-1.395-6-2
				c-0.031-3.032,5.031-0.968,5-4c0.458-3.125-2.137-3.197-5-3c-4.59,4.744-2.054,16.613-11,17c0.576-2.091,2.479-2.854,2-6
				c-5.773-2.894-12.77-4.564-18-8c-1.667,1.333-1.553,4.447-3,6c-4.945-3.65-6.898,1.763-12,0c-2.823,5.567,0.061,12.062-5,14
				c3.066,5.19-0.23,9.456-3,11c-4.909,2.737-2.952,13.691-8,15c-2.796,1.286,3.15,2.067,2,5c2.949-2.385,1.66-9.006,5-11
				c2.042,1.624,5.881,1.452,6,5c-3.14,1.11-2.642,0.468-5-1c0.154,2.487-1.571,3.096-2,5c1.847,2.352,4.868,3.525,3,7
				c4.696,1.638,8.765,3.901,13,6c4.127,2.358-6.607-1.418-8-3c-1.701-0.367-1.887,0.78-2,2c-10.24-7.597-33.776-20.394-21-38
				c-0.294-2.039-2.706-1.961-3-4c3.213,2.713,4.792-2.613,5-6c5.545-15.096,6.637-25.434,11-40c-4.665-4.335-11.923-6.077-18-9
				c0-0.333,0-0.667,0-1c7.234,2.099,13.881,4.785,19,9c15.679-23.655,26.835-51.832,52-66c-0.521,1.479-1.479,2.521-2,4
				c3.053,2.366,2.542,6.208,6,12c7.651-1.235,15.905,4.459,21,9c0.458,3.125-2.137,3.197-5,3c-0.155,2.822,2.827,2.506,4,4
				c-0.437,1.23-1.279,2.054-3,2c3.683,12.241,22.907,7.953,26-2c0.115-16.782-9.3-24.034-21-29c20.439,4.624,22.914,19.354,21,43
				c-1.215,15.014-0.436,36.598-4,46c-1.563,4.121-5.422,5.238-6,11c0.086-1.419,0.165-2.832-1-3c-2.463,3.014-1.014,4.736-1,9
				c-2.983,7.017-3.531,16.469-12,18c3.816,6.485-1.435,14.927-3,22C526.643,540.31,527.17,542.504,527,544z"/>
			<path fill-rule="evenodd" clip-rule="evenodd" fill="#15181E" d="M534,394c11.7,4.966,21.115,12.218,21,29
				c-3.093,9.953-22.317,14.241-26,2c1.721,0.054,2.563-0.77,3-2c-1.173-1.494-4.155-1.178-4-4c2.863,0.197,5.458,0.125,5-3
				c-5.095-4.541-13.349-10.235-21-9c-3.458-5.792-2.947-9.634-6-12c0.521-1.479,1.479-2.521,2-4
				C517.299,388.634,526.363,391.75,534,394z"/>
			<path fill-rule="evenodd" clip-rule="evenodd" fill="#15181E" d="M528,540c1.565-7.073,6.816-15.515,3-22
				c8.469-1.531,9.017-10.983,12-18c0.779-0.221,1.162-0.837,1-2c8.618,3.382,16.778,7.222,25,11c-1.854,8.146-5.527,14.473-8,22
				c-3.039-0.025-8.144-3.125-8,2c-3.363-1.614,3.144-3.166,0-5c-1.406,0.261-1.14,2.193-2,3c0.149,4.185,4.484,4.183,7,6
				c-1.266,6.067-4.334,10.332-6,16C543.369,549.298,532.585,547.749,528,540z"/>
			<path fill-rule="evenodd" clip-rule="evenodd" fill="#726D67" d="M545,494c0,0.667,0,1.333,0,2
				c48.626,22.707,98.026,44.641,147,67c-5.674,14.66-13.669,26.998-21,40c0.656-5.646,6.847-8.926,4-15
				c10.879-7.587,8.659-16.952,15-23c-9.48-8.187-24.658-10.675-35-18c-3.67,5.473-11.362,14.847-8,21
				c-5.072,0.832-13.262,15.14-13,24c-4.564-1.491-6.811-1.779-11-5c3.146-0.479,3.909,1.424,6,2c5.104-5.475,7.221-16.785,9-20
				c-1.144-3.056-5.26-3.134-3-7c1.926-1.941,4.023,1.052,7,1c3.3-5.033,5.558-11.109,8-17c-11.145-6.522-24.229-11.105-36-17
				c-5.415,5.734-11.365,18.829-10,25c-3.145,2.357-11.128,12.438-9,20c-23.819-8.848-45.051-20.282-68-30
				c0.17-1.496-0.357-3.69,1-4c4.585,7.749,15.369,9.298,24,13c1.666-5.668,4.734-9.933,6-16c-2.516-1.817-6.851-1.815-7-6
				c0.86-0.807,0.594-2.739,2-3c3.144,1.834-3.363,3.386,0,5c-0.144-5.125,4.961-2.025,8-2c2.473-7.527,6.146-13.854,8-22
				c-8.222-3.778-16.382-7.618-25-11c0.162,1.163-0.221,1.779-1,2c-0.014-4.264-1.463-5.986,1-9
				C545.165,491.168,545.086,492.581,545,494z M609,526c-13.807-3.526-23.468-11.198-37-15c-2.697,8.571-6.765,14.994-5,23
				c3.101,0.895,6.043,5.574,2,8c-2.421-1.246-4.857-2.476-8-3c-1.666,5.668-4.734,9.933-6,16c11.691,5.642,23.28,11.387,36,16
				c2.045-5.288,5.465-9.201,6-16c-2.367-2.3-7.764-1.57-7-7c2.993-3.968,5.819,1.462,11,1C603.069,541.295,610.594,534.074,609,526
				z"/>
			<path fill-rule="evenodd" clip-rule="evenodd" fill="#15181E" d="M623,587c-10.426-3.241-19.307-8.026-28-13
				c-2.128-7.562,5.855-17.643,9-20c-1.365-6.171,4.585-19.266,10-25c11.771,5.895,24.855,10.478,36,17
				c-2.442,5.891-4.7,11.967-8,17c-2.977,0.052-5.074-2.941-7-1c-2.26,3.866,1.856,3.944,3,7c-1.779,3.215-3.896,14.525-9,20
				C626.909,588.424,626.146,586.521,623,587z"/>
			<path fill-rule="evenodd" clip-rule="evenodd" fill="#15181E" d="M634,592c-0.262-8.86,7.928-23.168,13-24
				c-3.362-6.153,4.33-15.527,8-21c10.342,7.325,25.52,9.813,35,18c-6.341,6.048-4.121,15.413-15,23c2.847,6.074-3.344,9.354-4,15
				c0.729,2.729-1.987,2.013-2,4C657.372,601.962,645.669,596.997,634,592z"/>
			<path fill-rule="evenodd" clip-rule="evenodd" fill="#15181E" d="M369,472c-7.561-4.772-17.028-7.638-25-12
				c-0.574-8.241,2.857-12.476,3-20c-3.203,4.797-4.056,11.944-6,18c-12.848-2.819-22.268-9.066-33-14
				c2.155-16.845,6.218-31.782,9-48c12.53,3.47,21.445,10.555,34,14c0.524,10.524-3.154,16.846-4,26c5.838-4.162,2.672-17.328,7-23
				c10.546,0.787,15.444,7.223,25,9c1.891,3.109,6.13,3.87,10,5c-3.232,18.55-7.906,29.476-11,48
				C374.99,474.01,373.538,471.462,369,472z"/>
			<path fill-rule="evenodd" clip-rule="evenodd" fill="#726D67" d="M379,422c19.825,8.175,39.313,16.687,58,26c0,0.333,0,0.667,0,1
				c-1.869-0.798-3.663-1.671-6-2c-1.951,5.715-4.144,11.19-5,18c2.588,2.648,9.608,3.103,6,9c-2.658-0.675-5.092-1.574-7-3
				c-4.343,4.657-4.643,13.357-7,20c4.623,6.71,14.319,8.348,22,12c2.315-1.124-1.413-3.875,2-5c0.667,0,1.333,0,2,0
				c-0.208,3.387-1.787,8.713-5,6c-14.52-6.147-29.348-11.985-42-20c5.891,2.442,11.967,4.7,17,8c2.884-7.405,8.907-21.674,2-27
				c1.787,0.282,2.052-0.945,1-1c0.257-2.34,4.394-0.576,5,0c3.103-4.897,3.622-12.378,6-18c-10.369-6.965-24.001-10.665-35-17
				c-3.368,7.29-6.309,20.028-2,24c-0.691,3.135-2.667,1.304-5,1c-0.432,7.678-7.706,17.687-3,24c-5.677-0.989-9.075-4.258-14-6
				c4.538-0.538,5.99,2.01,9,3c3.094-18.524,7.768-29.45,11-48C385.13,425.87,380.891,425.109,379,422z"/>
			<path fill-rule="evenodd" clip-rule="evenodd" fill="#15181E" d="M437,449c6.077,2.923,13.335,4.665,18,9
				c-4.363,14.566-5.455,24.904-11,40c-0.667,0-1.333,0-2,0c-3.413,1.125,0.315,3.876-2,5c-7.681-3.652-17.377-5.29-22-12
				c2.357-6.643,2.657-15.343,7-20c1.908,1.426,4.342,2.325,7,3c3.608-5.897-3.412-6.352-6-9c0.856-6.81,3.049-12.285,5-18
				C433.337,447.329,435.131,448.202,437,449z"/>
			<path fill-rule="evenodd" clip-rule="evenodd" fill="#15181E" d="M397,484c-5.03-1.637-9.248-4.086-14-6
				c-4.706-6.313,2.568-16.322,3-24c2.333,0.304,4.309,2.135,5-1c-4.309-3.972-1.368-16.71,2-24c10.999,6.335,24.631,10.035,35,17
				c-2.378,5.622-2.897,13.103-6,18c-0.606-0.576-4.743-2.34-5,0c1.052,0.055,0.787,1.282-1,1c6.907,5.326,0.884,19.595-2,27
				C408.967,488.7,402.891,486.442,397,484z"/>
			<path fill-rule="evenodd" clip-rule="evenodd" fill="#15181E" d="M601,549c-5.181,0.462-8.007-4.968-11-1
				c-0.764,5.43,4.633,4.7,7,7c-0.535,6.799-3.955,10.712-6,16c-12.72-4.613-24.309-10.358-36-16c1.266-6.067,4.334-10.332,6-16
				c3.143,0.524,5.579,1.754,8,3c4.043-2.426,1.101-7.105-2-8c-1.765-8.006,2.303-14.429,5-23c13.532,3.802,23.193,11.474,37,15
				C610.594,534.074,603.069,541.295,601,549z"/>
		</g>
		<g>
		</g>
	</g>
</g>
</svg>
