<?xml version="1.0" encoding="utf-8"?>
<!-- Generator: Adobe Illustrator 20.1.0, SVG Export Plug-In . SVG Version: 6.00 Build 0)  -->
<svg version="1.1" id="Layer_1" xmlns="http://www.w3.org/2000/svg" xmlns:xlink="http://www.w3.org/1999/xlink" x="0px" y="0px"
	 viewBox="0 0 95.3 97.3" style="enable-background:new 0 0 95.3 97.3;" xml:space="preserve">
<g>
	<path d="M78.5,35.7c0-14.1-13.9-25.5-31-25.5s-31,11.5-31,25.5c0,3.7,0.9,7.2,2.7,10.5c1.5,2.8,1.9,6.2,1,9.5
		c-1.2,2.7-0.8,5.6,0.9,8.1l14.4,20.1c2.8,3.9,7.2,6.2,12,6.2s9.2-2.2,12-6.2l14.4-20.1c1.8-2.5,2.1-5.4,0.9-8.1
		c-0.9-3.3-0.6-6.7,1-9.5C77.6,43,78.5,39.4,78.5,35.7z M54.2,56c0.1,0.8,0.2,1.5,0.5,2.2c-0.2,0-0.5-0.1-0.7-0.1s-0.3,0-0.5,0
		C53.6,57.6,53.8,56.8,54.2,56z M57.2,59c-0.7-1.1-1.1-2.4-1.1-3.7c0-0.9,0.2-1.7,0.5-2.6c1.6-1.5,3.6-2.6,6.2-3.2
		c1.1-0.3,2.2-0.4,3.2-0.5c2.4,1.1,4,3.6,4,6.2c0,1.5-0.5,2.9-1.4,4.1c-0.6,0.5-1.4,0.8-2.2,0.9c-1,0.2-1.9,0.3-2.8,0.3
		c-2.6,0-4.4-0.8-6-1.5C57.4,59.1,57.3,59.1,57.2,59z M70.1,50.2c1.7,1.2,2.2,3,2.4,3.6c-0.1,0.3-0.3,0.9-0.7,1.6c0,0,0,0,0-0.1
		C71.8,53.4,71.1,51.7,70.1,50.2z M74.1,45.4c-0.8,1.4-1.3,3-1.5,4.6c-1.3-1.5-3.3-2.7-6.5-2.7c-1.2,0-2.5,0.2-3.8,0.5
		c-3.3,0.8-5.6,2.3-7.2,3.9l0,0l0,0c-1,1-1.7,2-2.2,2.9c-1.4,2.6-1.5,4.8-1.5,4.9c0,0.3,0.1,0.6,0.4,0.8c0.3,0.2,0.6,0.2,0.9,0.1
		c0.4-0.2,0.8-0.3,1.3-0.3c0.8,0,1.7,0.4,2.8,0.9c1.7,0.7,3.8,1.6,6.8,1.6c1,0,2-0.1,3.1-0.3c3.2-0.6,5.3-3.4,6.5-5.5
		c0.8,2,0.5,4.2-0.8,6.1L58,83c-2.4,3.4-6.3,5.4-10.5,5.4s-8-2-10.5-5.4L22.6,62.9c-1.4-1.9-1.7-4.1-0.8-6.2c1.2,2.1,3.3,5,6.5,5.6
		c1.1,0.2,2.1,0.3,3.1,0.3l0,0c3,0,5.1-0.9,6.8-1.6c1.1-0.5,2-0.9,2.8-0.9c0.4,0,0.8,0.1,1.3,0.3c0.3,0.1,0.6,0.1,0.9-0.1
		c0.3-0.2,0.4-0.5,0.4-0.8c0-0.1-0.1-2.4-1.5-4.9c-1.3-2.4-4-5.5-9.4-6.8c-1.4-0.3-2.7-0.5-3.8-0.5c-3.2,0-5.2,1.3-6.5,2.8
		c-0.2-1.6-0.8-3.2-1.5-4.6c-1.7-3-2.5-6.3-2.5-9.6c0-13.1,13.1-23.7,29.1-23.7s29.1,10.6,29.1,23.7C76.6,39.1,75.8,42.3,74.1,45.4z
		 M41.6,58.2c-0.2,0-0.3,0-0.5,0c-0.3,0-0.5,0-0.8,0.1c0.3-0.8,0.4-1.6,0.5-2.4C41.2,56.8,41.5,57.6,41.6,58.2z M38.4,52.7
		c0.4,0.8,0.5,1.7,0.5,2.7c0,1.3-0.4,2.6-1.1,3.7c-0.1,0-0.2,0.1-0.3,0.1c-1.6,0.7-3.4,1.5-6,1.5c-0.9,0-1.8-0.1-2.8-0.3
		c-0.9-0.2-1.6-0.5-2.3-1c-0.8-1.2-1.3-2.6-1.3-4c0-2.7,1.6-5.1,4-6.2c1,0,2.1,0.2,3.2,0.5C35,50.2,37,51.4,38.4,52.7z M23.3,55.3
		c-0.3-0.6-0.5-1.2-0.6-1.5c0.1-0.6,0.6-2.4,2.2-3.6C23.8,51.7,23.3,53.4,23.3,55.3z"/>
	<path d="M42.7,79c-0.5-0.2-2.6-2.2-3-1.5c-1,0.8,1.6,2.9,2,3.1c1.8,0.7,4.1,1,6.4,1c2.3,0,4.6-0.4,6.4-1c1.4-1.1,3.9-2.8,2.6-3.7
		c-0.7-0.5-1.9,1.7-3.6,2.3c-1.6,0.6-3.3,0.6-5.5,0.6C46,79.8,45,79.6,42.7,79z"/>
	<path d="M42.8,71.7c0.5,0,0.9-0.4,0.9-0.9c0-1.1,0.5-1.9,0.8-1.9s0.8,0.7,0.8,1.9c0,1.1-0.5,1.9-0.8,1.9c-0.5,0-0.9,0.4-0.9,0.9
		s0.4,0.9,0.9,0.9c1.5,0,2.7-1.6,2.7-3.7c0-2.1-1.2-3.7-2.7-3.7s-2.7,1.6-2.7,3.7C41.9,71.2,42.3,71.7,42.8,71.7z"/>
	<path d="M47.8,70.7c0,2.1,1.2,3.7,2.7,3.7c0.5,0,0.9-0.4,0.9-0.9s-0.4-0.9-0.9-0.9c-0.3,0-0.8-0.7-0.8-1.9c0-1.1,0.5-1.9,0.8-1.9
		s0.8,0.7,0.8,1.9c0,0.5,0.4,0.9,0.9,0.9s0.9-0.4,0.9-0.9c0-2.1-1.2-3.7-2.7-3.7C49,67,47.8,68.6,47.8,70.7z"/>
	<path d="M67.7,21.2c-0.4-0.3-1-0.3-1.3,0.1c-0.3,0.4-0.3,1,0.1,1.3c2.6,2.2,4.6,5.3,5.6,8.6c1,3.4,0.9,6.9-0.2,10.1
		c-0.2,0.5,0.1,1,0.6,1.2c0.1,0,0.2,0.1,0.3,0.1c0.4,0,0.7-0.2,0.9-0.6C76.2,34.8,73.8,26.4,67.7,21.2z"/>
	<path d="M64.7,18.8c-0.9-0.6-1.6-1-2.3-1.4c-0.5-0.2-1-0.1-1.3,0.4c-0.2,0.5-0.1,1,0.4,1.3c0.6,0.3,1.3,0.7,2.1,1.3
		c0.2,0.1,0.3,0.2,0.5,0.2c0.3,0,0.6-0.1,0.8-0.4C65.2,19.7,65.1,19.1,64.7,18.8z"/>
</g>
</svg>
