<?xml version="1.0" encoding="utf-8"?>
<!-- Generator: Adobe Illustrator 20.1.0, SVG Export Plug-In . SVG Version: 6.00 Build 0)  -->
<svg version="1.1" id="Layer_1" xmlns="http://www.w3.org/2000/svg" xmlns:xlink="http://www.w3.org/1999/xlink" x="0px" y="0px"
	 viewBox="0 0 83.8 76.3" style="enable-background:new 0 0 83.8 76.3;" xml:space="preserve">
<g>
	<path d="M39.5,53.2c-0.4,0-0.8,0.4-0.8,0.8v4.6c0,0.4,0.3,0.8,0.8,0.8s0.8-0.3,0.8-0.8V54C40.3,53.6,39.9,53.2,39.5,53.2z"/>
	<path d="M45.3,59v-4.8c0-0.4-0.3-0.8-0.8-0.8s-0.8,0.4-0.8,0.8V59c0,0.4,0.4,0.8,0.8,0.8S45.3,59.4,45.3,59z"/>
	<path d="M45.2,64.1c-0.1,0-0.2,0-0.3,0c-0.4,0-0.8,0.4-0.8,0.8s0.3,0.8,0.8,0.8c0.2,0,0.5,0,0.7-0.1c0.4-0.1,0.7-0.5,0.6-1
		S45.6,63.9,45.2,64.1z"/>
	<path d="M82,67.4c0-1.5-0.7-2.9-1.9-3.8c0.3-0.7,0.5-1.5,0.5-2.3c0-1.8-1-3.4-2.4-4.4c0-0.2,0-0.4,0-0.6c0-2.9-2.4-5.3-5.3-5.3
		c-2.8,0-5.1,2.2-5.3,4.9c-2.5,0.4-4.3,2.6-4.3,5.1c0,0.4,0.1,0.9,0.2,1.3c-0.7,0.4-1.2,1-1.4,1.8c-0.2,0-0.5,0-0.7,0
		c-2.4,0-4.5,1.6-5.3,3.8c-0.6-0.2-1.3-0.3-2-0.2c-0.4-1.6-1.9-2.8-3.7-2.8c-0.1,0-0.1,0-0.2,0c0-0.1,0-0.2,0-0.4
		c0-1.6-1.3-2.8-2.8-2.8C47,60.7,46,60,44.8,60c-0.4,0-0.8,0.4-0.8,0.8s0.3,0.8,0.8,0.8c0.6,0,1.2,0.5,1.3,1.1
		c0,0.2,0.2,0.4,0.3,0.5c0.2,0.1,0.4,0.2,0.6,0.1c0.1,0,0.2,0,0.3,0c0.7,0,1.3,0.6,1.3,1.3c0,0.5-0.3,1-0.8,1.2
		c-0.2,0.1-0.4,0.3-0.5,0.5c-0.1,0.4,0.2,0.8,0.2,0.8c0.1,0.2,0.3,0.4,0.6,0.4c0.2,0,0.5-0.1,0.7-0.2c0.4-0.5,1-0.7,1.6-0.7
		c1.2,0,2.2,1,2.3,2.2c0,0.3,0.1,0.5,0.3,0.6c0.2,0.1,0.5,0.2,0.7,0.1c0.1,0,0.5-0.2,0.9-0.2c0.5,0,1,0.2,1.5,0.5
		c0.2,0.2,0.5,0.2,0.8,0.1c0.3-0.1,0.4-0.3,0.5-0.6c0.2-2,1.9-3.5,4-3.5c0.4,0,0.8,0.1,1.2,0.2c0.3,0.1,0.5,0,0.7-0.1
		c0.2-0.2,0.3-0.4,0.3-0.7c0,0,0-0.1,0-0.1c0-0.4,0.2-0.8,0.6-1.1c0.7,0.9,1.7,1.6,2.9,1.6c0,0,0,0,0.1,0c0.4,0,0.8-0.3,0.8-0.7
		c0-0.4-0.3-0.8-0.7-0.8c-0.9-0.1-1.6-0.6-1.9-1.4c-0.1-0.2-0.3-0.7-0.3-1.5c0-2,1.6-3.6,3.6-3.6c1,0,1.9,0.4,2.6,1.1
		c-1,1.7-0.8,4,0.7,5.5c0.2,0.2,0.4,0.2,0.6,0.2s0.4-0.1,0.6-0.2c0.3-0.3,0.3-0.8,0-1.1c-1.2-1.1-1.2-3-0.1-4.2c0,0,0.1-0.1,0.1-0.1
		c0.7-0.6,1.5-1,2.5-1c2,0,3.6,1.6,3.6,3.6c0,0.8-0.2,1.5-0.7,2.1c-0.1,0.2-0.2,0.4-0.1,0.6s0.2,0.4,0.4,0.5
		c1.1,0.5,1.7,1.6,1.7,2.8c0,1.4-1,2.7-2.3,3c-0.2,0.1-0.4,0.2-0.5,0.4c-0.1,0.2-0.1,0.4-0.1,0.6c0.1,0.3,0.1,0.6,0.1,0.9
		c0,0,0,0,0,0.1H6.3c0,0,0-0.2,0-0.3c0-0.2,0.1-0.4,0.1-0.6c0.1-0.2,0-0.4-0.1-0.6s-0.3-0.3-0.5-0.4c-1.4-0.4-2.3-1.6-2.3-3
		c0-0.9,0.4-1.8,1.1-2.4c0.1,0,0.3-0.2,0.3-0.2C6.1,64,7.7,64,8.7,65c0.2,0.2,0.4,0.2,0.6,0.2s0.4-0.1,0.6-0.2
		c0.3-0.3,0.3-0.8,0-1.1c-1.2-1.2-3-1.6-4.5-1.1c-0.2-0.5-0.3-1-0.3-1.5c0-2,1.6-3.6,3.6-3.6c0.9,0,1.7,0.3,2.4,0.9
		c-0.3,0.6-0.5,1.3-0.5,2c0,1.2,0.5,2.4,1.3,3.2c0.2,0.2,0.4,0.2,0.6,0.2s0.4-0.1,0.6-0.2c0.3-0.3,0.3-0.8,0-1.1
		c-0.6-0.6-0.9-1.3-0.9-2.1c0-0.8,0.3-1.5,0.8-2.1c0.7-0.7,1.6-1.1,2.6-1.1c2,0,3.6,1.6,3.6,3.6c0,0.5-0.1,1-0.3,1.4
		c-0.1,0.2-0.1,0.5,0,0.7c0.1,0.2,0.3,0.4,0.5,0.4c0.5,0.1,0.9,0.5,1,0.9c-1.7,0.8-2.8,2.6-2.6,4.5c0,0.4,0.4,0.7,0.8,0.7
		c0.4,0,0.8-0.4,0.7-0.8c-0.1-1.4,0.8-2.7,2.1-3.1c0.5-0.1,1-0.2,1.2-0.2c2,0,3.7,1.5,4,3.5c0,0.3,0.2,0.5,0.5,0.6s0.5,0.1,0.8-0.1
		c0.5-0.3,1-0.5,1.6-0.5c0.4,0,0.7,0.1,0.9,0.2c0,0,0,0,0,0c0.7,0.3,1.1,0.9,1.1,1.7c0,0.4,0.3,0.8,0.8,0.8s0.8-0.3,0.8-0.8
		c0-1.2-0.7-2.3-1.7-2.9c0.2-1,1.1-1.7,2.2-1.7c0.6,0,1.2,0.2,1.6,0.7c0.2,0.2,0.4,0.3,0.7,0.2c0.2,0,0.5-0.2,0.6-0.4
		c0,0,0.3-0.4,0.2-0.8c-0.1-0.2-0.2-0.4-0.5-0.5c-0.5-0.2-0.8-0.7-0.8-1.2c0-0.7,0.6-1.3,1.3-1.3c0.1,0,0.2,0,0.3,0
		c0.2,0.1,0.5,0,0.6-0.1c0.2-0.1,0.3-0.3,0.3-0.5c0.1-0.6,0.6-1.1,1.3-1.1c0.4,0,0.8-0.3,0.8-0.8S39.6,60,39.2,60
		c-1.2,0-2.2,0.7-2.6,1.7c-1.6,0-2.8,1.3-2.8,2.9c0,0.1,0,0.3,0,0.4c-0.1,0-0.1,0-0.2,0c-1.7,0-3.2,1.2-3.7,2.8
		c-0.7-0.1-1.3,0-2,0.2c-0.7-2.2-2.8-3.8-5.3-3.8c-0.2,0-0.5,0-0.7,0c-0.2-0.8-0.7-1.4-1.4-1.8c0.1-0.4,0.2-0.9,0.2-1.3
		c0-2.9-2.3-5.2-5.2-5.2c-1.4,0-2.6,0.5-3.6,1.4c-0.9-0.8-2.1-1.2-3.3-1.2c-2.9,0-5.2,2.3-5.2,5.2c0,0.8,0.2,1.6,0.5,2.3
		C2.7,64.5,2,65.8,2,67.4c0,1.9,1.1,3.6,2.8,4.3c0,0.2,0,0.4,0,0.6c0,0.3,0,0.7,0.1,1c0.1,0.4,0.4,0.6,0.8,0.6h72.7
		c0.4,0,0.7-0.3,0.8-0.6c0.1-0.3,0.1-0.7,0.1-1c0-0.2,0-0.4,0-0.6C80.9,70.9,82,69.2,82,67.4z M72.1,57.3c-0.8-0.8-1.8-1.2-2.9-1.4
		c0.2-1.9,1.8-3.3,3.7-3.3c2,0,3.7,1.6,3.8,3.7c-0.4-0.1-0.8-0.2-1.3-0.2C74.2,56.1,73,56.5,72.1,57.3z"/>
	<path d="M38.5,70.7c-0.1,0.4,0.2,0.8,0.6,0.9c0,0,0.1,0,0.1,0c0.4,0,0.7-0.3,0.8-0.7c0.2-1.2,1.2-2.2,2.4-2.4
		c1.2-0.2,2.3,0.4,2.9,1.3c0.2,0.4,0.7,0.5,1.1,0.3c0.4-0.2,0.5-0.7,0.3-1.1c-0.9-1.5-2.7-2.3-4.5-2.1c-0.1,0-0.1,0-0.2,0
		c-0.4-1.5-1.8-2.6-3.4-2.7c-0.4,0-0.8,0.3-0.8,0.7s0.3,0.8,0.7,0.8c1,0.1,1.8,0.8,2.1,1.8C39.5,68.3,38.7,69.4,38.5,70.7z"/>
	<path d="M36.7,52.7h10.7c0.4,0,0.8-0.3,0.8-0.8V40.4c0-0.1,0-0.3-0.1-0.4l-2.7-4.4V9.3c0-0.1,0-0.2,0-0.3l-2.5-6.8
		c-0.1-0.3-0.4-0.5-0.7-0.5s-0.6,0.2-0.7,0.5L38.8,9c0,0.1,0,0.2,0,0.3v26.3L36,40c-0.1,0.1-0.1,0.3-0.1,0.4V52
		C35.9,52.4,36.2,52.7,36.7,52.7z M43.7,10v1h-3.4v-1H43.7z M40.3,51.2V12.6h3.4v38.6H40.3z M46.6,40.6v10.5h-1.3V38.6L46.6,40.6z
		 M42,4.7l1.4,3.8h-2.8L42,4.7z M37.4,40.6l1.3-2.1v12.6h-1.3V40.6z"/>
</g>
</svg>
